<!DOCTYPE svg PUBLIC "-//W3C//DTD SVG 1.1//EN" "http://www.w3.org/Graphics/SVG/1.1/DTD/svg11.dtd">

<!-- Uploaded to: SVG Repo, www.svgrepo.com, Transformed by: SVG Repo Mixer Tools -->
<svg width="800px" height="800px" viewBox="0 0 24 24" fill="none" xmlns="http://www.w3.org/2000/svg">

<g id="SVGRepo_bgCarrier" stroke-width="0"/>

<g id="SVGRepo_tracerCarrier" stroke-linecap="round" stroke-linejoin="round"/>

<g id="SVGRepo_iconCarrier"> <path d="M13.4093 12.2471C13.4093 15.6973 10.6313 18.4944 7.20451 18.4944C3.77768 18.4944 0.999969 15.6982 0.999969 12.2471C0.999969 8.79604 3.77789 6 7.20451 6C10.6311 6 13.4093 8.79688 13.4093 12.2471ZM20.2159 12.2471C20.2159 15.4951 18.8269 18.1278 17.1136 18.1278C15.4003 18.1278 14.0112 15.4942 14.0112 12.2471C14.0112 8.99998 15.4003 6.36639 17.1136 6.36639C18.8269 6.36639 20.2159 8.99998 20.2159 12.2471ZM23 12.2471C23 15.1571 22.5114 17.516 21.9088 17.516C21.3063 17.516 20.8177 15.1563 20.8177 12.2471C20.8177 9.33792 21.3063 6.97822 21.909 6.97822C22.5118 6.97822 23 9.33729 23 12.2471Z" stroke="currentColor" stroke-linejoin="round"/> </g>

</svg>