<?xml version="1.0" encoding="utf-8"?>
<!-- Uploaded to: SVG Repo, www.svgrepo.com, Generator: SVG Repo Mixer Tools -->
<svg width="800px" height="800px" viewBox="-39.64 0 287.988 287.988" xmlns="http://www.w3.org/2000/svg"><defs><style>.a{fill:#ffffff;}.b{fill:#b3b3b3;}.c{fill:#3d8dcc;}.d{fill:#211715;}.e{fill:#85807f;}</style></defs><path class="a" d="M154.324,78.821a7.344,7.344,0,0,1,5.308-1.943,6.812,6.812,0,0,1,6.12,3.4,15.784,15.784,0,0,1,1.609,7.523,3.972,3.972,0,0,0-.364-.25,4.193,4.193,0,0,0-4.338-.01c-2.918,1.54-4.277,7.246-4.277,7.246l-1.077,3.846a3.841,3.841,0,0,0-1.131-.236c-3.794-.253-5.169,9.889-6.051,12.8a42.617,42.617,0,0,1-21.785,25.094c-7.87,2.6-11.7,6.885-13.44,12.171-2.123-1.885-4.181-3.7-5.61-4.962l-3.269-.072L95.052,141.05c-8.863-1.256-16.1-6.124-22.818-14.163a55.815,55.815,0,0,1-10.6-19.987,7.94,7.94,0,0,1-6.752-1.69c-3.9-3.194-5.524-7.649-6.512-10.561-1.4-4.111-1.485-10.757.594-14.363a6.812,6.812,0,0,1,6.12-3.4A7.344,7.344,0,0,1,60.4,78.828S48.053,40,107.361,40,154.324,78.821,154.324,78.821Z"/><path class="a" d="M112.5,276.355c-.557.06-1.073.09-1.533.1-6.076.094-13.108.2-19.033.25-.215-11.957-.377-26.612-.578-34.987H93.2a72.319,72.319,0,0,0,18.023-2.79l1.632-.569,3.1-1.081q.341,2.421.727,4.835c.714,4.479,1.342,9.278,2.379,13.963a47.931,47.931,0,0,0,4.892,13.45C121.841,274.239,116.263,275.954,112.5,276.355Z"/><path class="b" d="M105.692,240.312c1-.2,1.973-.41,2.909-.644A418.974,418.974,0,0,1,91.785,196.7a535.321,535.321,0,0,1-15.2-57.625l-.731-3.7s-.432-2.192-1.122-5.679q-1.014-1.073-2.01-2.239l-2.87,1.589-2.546,1.41q-.993.579-1.909,1.192c-.189.127-.376.254-.557.389C47.288,137.4,33.609,142.7,23.6,153.126c-7.25,8.43-12.728,21.537-16.472,40.905a277.421,277.421,0,0,0-4.668,47.507C2.154,255,5.55,266.373,10.845,272.584c9.254,10.854,27.878,13.03,40.9,12.909,13.753-.128,24.006-.444,40.342-1.414-.295-12.589-.482-32.086-.726-42.309l1.833-.055A81.2,81.2,0,0,0,105.692,240.312Z"/><path class="b" d="M119.032,256.071c1.278,5.611,3.113,11.056,6.275,15.584,10.641,15.235,32.5,17.706,47.784,8.729a51.17,51.17,0,0,0,18.083-18.735c11.773-20.744,14.989-46.981,15.076-70.524-1.073-20.073-7.345-29.533-14.254-37.932-7.159-7.794-16.313-12.7-27.527-16.9-2.513,7.446-6.911,11.488-15.064,17.649a28.24,28.24,0,0,1-3.945,2.365,7.313,7.313,0,0,0-3.744,7.477c.43,3,.56,3.957.976,6.649-9.051.974-18.43,1.827-27.211,3.117a3.044,3.044,0,0,0-2.379,3.108c-.378,10.455-.323,20.528.11,30.7a302.714,302.714,0,0,0,3.468,34.749c.714,4.479,1.369,9.28,2.406,13.966"/><path class="a" d="M106.019,143.428,95.052,141.05c-7.776-1.1-14.3-4.984-20.32-11.348.672,3.4,1.119,5.673,1.119,5.673l.731,3.7a535.321,535.321,0,0,0,15.2,57.625c.979,2.9,1.941,5.7,2.91,8.448,2.054-17.854,4.974-40.3,4.974-40.936a14.628,14.628,0,0,0-.5-3.27c-.13-.48-.24-.97-.34-1.46-.54-2.43-.64-3.67-1.26-6.24l-.306-1.6c2.882-2.8,6.5-6.229,8.756-8.216"/><path class="c" d="M115.05,230.357q-1.353-11.451-1.838-23c-.433-10.173-.488-20.246-.11-30.7a3.318,3.318,0,0,1,1.493-2.8c-.531-9.154-2.06-18.2.3-25.4-2.123-1.885-4.181-3.7-5.61-4.962l-1.4-.031-1.866-.041c-2.272,2.006-5.944,5.484-8.84,8.3.989,3.685,1.014,4.9,1.65,7.761.1.49.21.98.34,1.46a14.628,14.628,0,0,1,.5,3.27c0,.631-2.92,23.082-4.974,40.936,3.771,10.7,7.637,20.6,12.9,32.292l1,2.225c.921-.229,1.8-.477,2.627-.744l4.733-1.65Q115.459,233.822,115.05,230.357Z"/><path class="d" d="M100.379,164.723c4.847,0,9.694-.1,14.541-.1a2.4,2.4,0,0,0,0-4.8c-4.847,0-9.694.1-14.541.1a2.4,2.4,0,0,0,0,4.8Z"/><path class="d" d="M95.255,153.884c.422,1.782.709,3.587,1.076,5.38a21.982,21.982,0,0,1,.936,5c-.045,1.263-.293,2.547-.448,3.8-.806,6.525-1.63,13.048-2.431,19.574q-.855,6.972-1.679,13.95a2.415,2.415,0,0,0,2.4,2.4,2.457,2.457,0,0,0,2.4-2.4q1.408-12,2.921-23.982.558-4.481,1.117-8.962c.175-1.415.434-2.852.512-4.277a20.482,20.482,0,0,0-.877-5.333c-.463-2.136-.8-4.3-1.3-6.424-.711-3-5.34-1.733-4.629,1.276Z"/><path class="d" d="M125.183,154.617c-3.99-4.1-8.488-7.772-12.774-11.556-1.1-.974-2-1.906-3.547-1.97-.929-.039-1.9-.115-2.831-.063-1.6.089-2.983,1.839-4.105,2.877q-1.918,1.776-3.808,3.585c-2.22,2.119-4.461,4.234-6.579,6.457s1.258,5.636,3.394,3.394c4.053-4.255,8.385-8.321,12.783-12.216l-1.7.7,3.269.072-1.7-.7c4.757,4.2,9.768,8.26,14.2,12.814,2.158,2.219,5.55-1.177,3.4-3.394Z"/><path class="d" d="M109.666,236.233a430.286,430.286,0,0,1-16.433-42.78C88.774,179.8,85.1,165.872,81.84,151.888q-1.992-8.544-3.674-17.151a2.425,2.425,0,0,0-2.953-1.676,2.45,2.45,0,0,0-1.676,2.952q3.581,18.16,8.406,36.04,5.658,21.117,13.286,41.6c3.148,8.448,6.6,16.778,10.292,25a2.419,2.419,0,0,0,3.284.861,2.459,2.459,0,0,0,.861-3.284Z"/><path class="d" d="M68.638,126.974a40.255,40.255,0,0,0-13.333,11.094,42.809,42.809,0,0,0-2.787,4.276c-1.013,1.763-2.123,3.641-.859,5.6,1.029,1.595,3.481,2.3,5.092,3.159q2.9,1.555,5.708,3.283v-4.145a40.655,40.655,0,0,0-8.081,6.232c-2.387,2.354-5.1,5.048-3.943,8.7a36.72,36.72,0,0,0,2.278,4.815q1.255,2.553,2.541,5.091,2.4,4.718,4.917,9.37c5.271,9.706,10.843,19.261,16.321,28.851,2.688,4.7,5.377,9.409,8.137,14.072,1.572,2.656,5.723.244,4.144-2.423-4.99-8.432-9.8-16.973-14.636-25.493C68.479,189.49,62.8,179.548,57.7,169.276c-.848-1.709-1.775-3.41-2.524-5.165-.572-1.34.476-2.034,1.368-2.984a36.778,36.778,0,0,1,8.336-6.74,2.425,2.425,0,0,0,0-4.145q-2.305-1.413-4.674-2.721-1.134-.624-2.282-1.22c-.34-.176-2.173-1.4-2.521-1.268a1.408,1.408,0,0,1,.457,1.035q-.018.4.2-.229c.228-.333.4-.723.6-1.073q.547-.952,1.137-1.88a33.077,33.077,0,0,1,2.452-3.4,36.358,36.358,0,0,1,10.809-8.366c2.7-1.5.284-5.644-2.423-4.144Z"/><path class="e" d="M158.109,32.39a42.006,42.006,0,0,0-8.079-9.478l-7.5-6.666C132.806,5.413,119.883,2.419,107.146,2.42A57.726,57.726,0,0,0,71.418,14.167,52.147,52.147,0,0,0,61.349,24.654C54.822,31.044,49.615,45,50.005,58.844a72.6,72.6,0,0,0,2.283,18.58,8.55,8.55,0,0,1,2.8-.539A7.344,7.344,0,0,1,60.4,78.828L62.5,80.3a78.7,78.7,0,0,1,.916-8.438c.976-5.93,7.131-8.665,9.746-13.96,1.506-3.05,2.4-6.615,4.98-8.786,1.94-1.634,4.53-2.188,7.028-2.452,3.869-.407,16.957.175,21.334.983,3.7.208,7.292.947,12.573,1.619,2.864.365,8.177,1.3,10.209,1.709,7.99,1.837,11.052,3.831,15.066,9.268,1.538,2.084,3.175,5.886,4.691,10.836l5.281,7.74a7.344,7.344,0,0,1,5.308-1.943,8.673,8.673,0,0,1,2.6.465,60.316,60.316,0,0,0,2.211-18.507C163.929,46.606,161.912,38.685,158.109,32.39Z"/><path class="d" d="M59.652,22.957C55,27.583,52.092,33.89,50.193,40.089A66.624,66.624,0,0,0,47.73,63.145a72.269,72.269,0,0,0,2.055,14.21c.763,2.991,5.394,1.723,4.629-1.276a68.028,68.028,0,0,1-1.956-14.687,63.073,63.073,0,0,1,.832-13.807c1.417-7.519,4.206-15.72,9.756-21.234,2.2-2.18-1.2-5.574-3.394-3.394Z"/><path class="d" d="M144.226,14.549C135.774,5.228,124,.9,111.644.152,99.145-.6,86.146,1.4,75.225,7.776a42.691,42.691,0,0,0-8.771,6.568,65.294,65.294,0,0,0-7.177,9.1,2.422,2.422,0,0,0,.861,3.284,2.449,2.449,0,0,0,3.284-.861,63.966,63.966,0,0,1,5.572-7.237,34.848,34.848,0,0,1,6.906-5.64A50.189,50.189,0,0,1,91.887,6.374,69.928,69.928,0,0,1,109.4,4.852a53.13,53.13,0,0,1,15.757,2.671,37.64,37.64,0,0,1,15.68,10.42c2.08,2.293,5.466-1.11,3.394-3.394Z"/><path class="d" d="M164.7,77.347a68.911,68.911,0,0,0,2.186-14.786,85.913,85.913,0,0,0-.979-14.111c-.977-6.787-3.011-13.51-6.968-19.181a48.2,48.2,0,0,0-7.212-8.054c-2.284-2.072-5.688,1.313-3.394,3.394a37.244,37.244,0,0,1,10,13.529C161.17,45.189,162,53.072,162.1,60.616a61.453,61.453,0,0,1-2.024,15.455c-.735,3,3.893,4.28,4.628,1.276Z"/><path class="d" d="M107.142,45.335A88.537,88.537,0,0,0,95.483,44.3a67.277,67.277,0,0,0-10.708.016A15.176,15.176,0,0,0,76.6,47.3c-2.08,1.711-3.244,4.171-4.273,6.6a20.862,20.862,0,0,1-3.351,5.893c-1.465,1.67-3.126,3.161-4.538,4.878a15.04,15.04,0,0,0-3.486,7.5c-.468,3.044-.7,6.1-.938,9.166a2.42,2.42,0,0,0,2.4,2.4,2.448,2.448,0,0,0,2.4-2.4c.337-4.295.064-9.4,2.792-12.994,2.6-3.419,6.112-5.91,7.954-9.911.97-2.107,1.679-4.422,3.054-6.316s3.567-2.611,5.809-2.952a52.493,52.493,0,0,1,9.759-.121c2.244.084,4.487.206,6.726.379,1.022.079,2.043.168,3.061.279.165.018,1.252.152.757.085q.572.078,1.14.18a2.468,2.468,0,0,0,2.952-1.677,2.421,2.421,0,0,0-1.676-2.952Z"/><path class="d" d="M128.648,53.291c1.377.32,2.748.667,4.095,1.1.538.173,1.073.358,1.6.561.081.031.8.333.443.175q.322.141.64.294a13.622,13.622,0,0,1,4.505,3.244,20.078,20.078,0,0,1,3.669,4.955,47.381,47.381,0,0,1,3.129,8.1c.908,2.942,5.543,1.687,4.628-1.276a54.319,54.319,0,0,0-3.612-9.249,26.171,26.171,0,0,0-4.42-5.926c-3.636-3.749-8.417-5.449-13.4-6.605a2.452,2.452,0,0,0-2.953,1.676,2.427,2.427,0,0,0,1.677,2.952Z"/><path class="d" d="M121.68,47.717c-.732-3.114-3.167-5.772-5.62-7.681A28.333,28.333,0,0,0,102.1,34.557a2.411,2.411,0,0,0-2.4,2.4,2.462,2.462,0,0,0,2.4,2.4,27.342,27.342,0,0,1,6.411,1.73c-.368-.151.246.11.315.141.25.114.5.233.744.355q.662.329,1.3.7.609.353,1.195.744c.2.135.4.274.6.416.093.067.58.435.163.111a18.123,18.123,0,0,1,1.83,1.629q.363.369.7.762c.125.144.239.3.368.443.112.14.068.083-.13-.171.062.082.124.166.184.25a12.735,12.735,0,0,1,.955,1.574,3.571,3.571,0,0,1,.161.345c-.062.038-.21-.614-.062-.127.074.246.159.484.218.735a2.4,2.4,0,1,0,4.629-1.276Z"/><path class="d" d="M62.093,77.131a10.385,10.385,0,0,0-11.434-1.6A10.035,10.035,0,0,0,45.567,82.5a26.26,26.26,0,0,0,4.043,20.413c2.861,4.15,6.916,7.129,12.154,6.414a2.415,2.415,0,0,0,1.676-2.953,2.464,2.464,0,0,0-2.952-1.676c-3.59.491-6.405-3.364-7.879-6.084a22.633,22.633,0,0,1-2.778-8.9,19.7,19.7,0,0,1,.214-5.258,12,12,0,0,1,.583-2.142,6.659,6.659,0,0,1,.5-.96c.036-.058.411-.6.246-.387a4.81,4.81,0,0,1,2.937-1.614A5.233,5.233,0,0,1,58.7,80.525c2.286,2.068,5.691-1.317,3.394-3.394Z"/><path class="d" d="M156.021,80.518a5.322,5.322,0,0,1,7.389.518c-.326-.4.133.224.185.31a6.767,6.767,0,0,1,.5.96,11.666,11.666,0,0,1,.548,1.968,19.5,19.5,0,0,1,.249,5.431,22.6,22.6,0,0,1-2.693,8.743c-1.471,2.767-4.312,6.739-7.961,6.241a2.483,2.483,0,0,0-2.952,1.677,2.416,2.416,0,0,0,1.676,2.952c8.538,1.165,13.5-7.156,15.752-14.188a24.781,24.781,0,0,0,.716-11.256,11.233,11.233,0,0,0-4.359-7.772,10.291,10.291,0,0,0-12.442,1.022c-2.3,2.077,1.108,5.463,3.394,3.394Z"/><path class="d" d="M151.571,102.817a45.307,45.307,0,0,1-1.7,5.922c-.238.675-.618,1.7-.808,2.148-.171.4-.362.8-.527,1.2-.04.1-.269.681-.109.292s-.069.154-.11.244c-.091.2-.182.4-.276.592-.231.484-.475.962-.725,1.436-.6,1.136-1.244,2.25-1.915,3.346a58.716,58.716,0,0,1-12.583,14.889,23.039,23.039,0,0,1-9.294,4.809c-3.008.7-1.735,5.324,1.276,4.628,7.143-1.65,13.087-6.871,17.746-12.3a64.169,64.169,0,0,0,9.883-14.911c.246-.543.463-1.1.7-1.647-.318.753.411-.937.431-.986q.267-.645.515-1.3a46.6,46.6,0,0,0,2.127-7.1,2.459,2.459,0,0,0-1.677-2.952,2.422,2.422,0,0,0-2.952,1.676Z"/><path class="d" d="M58.389,103.933a58.938,58.938,0,0,0,8.246,19.433c4.238,6.4,9.821,12.385,16.573,16.161a32.821,32.821,0,0,0,11.206,3.837,2.478,2.478,0,0,0,2.952-1.676,2.417,2.417,0,0,0-1.676-2.952c-13.932-2.058-24.354-14.139-29.626-26.527a56.11,56.11,0,0,1-3.046-9.552c-.682-3.012-5.311-1.737-4.629,1.276Z"/><path class="d" d="M99.44,118.5a19.14,19.14,0,0,0,9.219,2.135,15,15,0,0,0,9.3-2.745,2.412,2.412,0,0,0,0-3.394,2.462,2.462,0,0,0-3.394,0c.728-.567.164-.134-.023-.014s-.376.228-.57.33c-.1.053-.2.1-.305.152-.39.2.1-.042.1-.032a4.938,4.938,0,0,1-.786.286,13.933,13.933,0,0,1-2.2.5c.355-.053-.063,0-.208.018q-.324.031-.648.053c-.521.034-1.042.047-1.564.044-.467,0-.934-.019-1.4-.051q-.321-.021-.641-.053c-.025,0-.8-.111-.308-.033a15.8,15.8,0,0,1-2.055-.457c-.288-.086-.569-.189-.853-.286-.613-.21.354.182-.2-.078-.353-.167-.7-.34-1.045-.522a2.452,2.452,0,0,0-3.283.861,2.427,2.427,0,0,0,.861,3.284Z"/><path class="d" d="M107.435,96.78a43.087,43.087,0,0,1,1.018,4.657l-.085-.638a2.823,2.823,0,0,1,.017.643l.086-.638a1.525,1.525,0,0,1-.071.289l.242-.574a1.155,1.155,0,0,1-.1.186l.376-.485a1.034,1.034,0,0,1-.153.15l.486-.376a3.029,3.029,0,0,1-.369.2l.574-.242a2.754,2.754,0,0,1-.622.181l.638-.086a2.428,2.428,0,0,1-.584,0l.638.086c-.22-.031-.436-.084-.656-.114a1.823,1.823,0,0,0-.957-.043,1.794,1.794,0,0,0-.892.285,2.4,2.4,0,0,0-.861,3.284,2.3,2.3,0,0,0,1.434,1.1c.5.067.989.195,1.5.217a4.779,4.779,0,0,0,2.211-.526,3.192,3.192,0,0,0,1.77-2.105,5.281,5.281,0,0,0-.023-2.266c-.253-1.5-.6-2.988-.986-4.459a2.4,2.4,0,0,0-4.629,1.276Z"/><path class="d" d="M82.725,83.59c-.778,2.528-.271,8.341,4.517,8.836,6.329-.039,6.665-7.068,4.534-10.372C90.032,79.348,84.9,78.223,82.725,83.59Z"/><path class="d" d="M133.6,83.587c.778,2.527.272,8.341-4.516,8.836-6.328-.038-6.666-7.067-4.536-10.372C126.287,79.345,131.416,78.22,133.6,83.587Z"/><path class="d" d="M9.441,194.669c2.256-11.6,5.325-23.478,11.47-33.689a38.787,38.787,0,0,1,9.56-10.86,67.777,67.777,0,0,1,14.34-8.393,175.614,175.614,0,0,1,20.666-7.377c2.946-.9,1.69-5.536-1.276-4.628-12.212,3.736-24.89,7.853-35.253,15.564a56.863,56.863,0,0,0-6.555,5.638,37.863,37.863,0,0,0-4.53,5.885,72.792,72.792,0,0,0-7.1,14.52,139.192,139.192,0,0,0-5.952,22.064,2.463,2.463,0,0,0,1.676,2.952,2.421,2.421,0,0,0,2.952-1.676Z"/><path class="d" d="M116.718,256.709c2.091,9.076,5.916,17.63,13.414,23.476a38.018,38.018,0,0,0,21.939,7.772,41.131,41.131,0,0,0,22.577-5.706,54.25,54.25,0,0,0,19.4-20.838c9.33-17.211,12.961-37.008,14.159-56.368a132.157,132.157,0,0,0,.416-14.389,79.267,79.267,0,0,0-1.93-14.1,55.328,55.328,0,0,0-8.533-19.248,53.928,53.928,0,0,0-6.295-7.7,57.04,57.04,0,0,0-9.658-7.53c-7.532-4.708-15.965-7.865-24.363-10.648-2.34-.776-4.69-1.519-7.045-2.249-2.957-.918-4.221,3.714-1.276,4.628,14.928,4.632,31.84,9.836,41.982,22.567a54.919,54.919,0,0,1,8.8,15.381,69.614,69.614,0,0,1,3.459,25.128c-.485,18.372-2.9,37.179-10.079,54.236-3.5,8.319-8.141,16.089-14.918,22.15a38.107,38.107,0,0,1-20.066,9.582,35.049,35.049,0,0,1-20.646-3.268,30.264,30.264,0,0,1-14.8-17.386,64.274,64.274,0,0,1-1.906-6.77c-.694-3.009-5.323-1.735-4.629,1.276Z"/><path class="d" d="M4.813,193.393A281.177,281.177,0,0,0,.4,229.913c-.641,11.171-.994,22.8,2.777,33.506a32.227,32.227,0,0,0,7.308,12.31,36.075,36.075,0,0,0,12.723,7.841c9.277,3.565,19.5,4.413,29.364,4.315,13.186-.132,26.35-.626,39.513-1.406a2.439,2.439,0,0,0,2.4-2.4c-.32-13.755-.4-27.514-.7-41.27-.049-2.2-.088-4.414-.214-6.617a2.443,2.443,0,0,0-2.4-2.4c-11.095.148-22.195.052-33.29.069q-6.748.011-13.5.041c-3.088.014-3.094,4.814,0,4.8,13.348-.061,26.7-.019,40.045-.062,2.247-.007,4.495-.018,6.742-.048l-2.4-2.4c.274,4.782.28,9.586.359,14.374.12,7.3.215,14.594.335,21.891q.094,5.811.222,11.622l2.4-2.4c-11.425.677-22.854,1.168-34.3,1.341-9.648.146-19.268.067-28.638-2.544A38.055,38.055,0,0,1,16.4,274.538,24.38,24.38,0,0,1,8.727,264.5c-4.264-9.717-4.142-20.617-3.7-31.01a268.158,268.158,0,0,1,4.417-38.824,2.463,2.463,0,0,0-1.676-2.952,2.421,2.421,0,0,0-2.952,1.676Z"/><path class="d" d="M43.479,191.416c1.629,13.591,3.285,27.18,4.85,40.779a2.473,2.473,0,0,0,2.4,2.4,2.414,2.414,0,0,0,2.4-2.4c-1.565-13.6-3.221-27.188-4.85-40.779a2.474,2.474,0,0,0-2.4-2.4,2.415,2.415,0,0,0-2.4,2.4Z"/><path class="d" d="M93.354,279.089q7.155-.069,14.309-.186c4.432-.067,8.54-.341,12.581-2.369,2.761-1.385.333-5.527-2.423-4.145-3.518,1.766-7.232,1.67-11.062,1.728q-6.7.1-13.4.172c-3.087.031-3.095,4.831,0,4.8Z"/><path class="d" d="M93.2,244.115a68.606,68.606,0,0,0,20.293-3.444,2.46,2.46,0,0,0,1.676-2.953,2.423,2.423,0,0,0-2.952-1.676A64.064,64.064,0,0,1,93.2,239.315c-3.081.1-3.095,4.9,0,4.8Z"/><path class="a" d="M169.261,92.061c-.038-.481-.079-.986-.12-1.522A4.792,4.792,0,0,0,167,87.55a4.193,4.193,0,0,0-4.338-.01c-2.918,1.54-4.277,7.246-4.277,7.246l-.961,4.038c-4.753-2.84-6.325,9.162-7.3,12.373a42.617,42.617,0,0,1-21.785,25.094c-18.519,6.112-14.693,21.58-13.754,37.4,9.033-1.367,18.745-2.244,28.109-3.252-.417-2.692-.547-3.65-.977-6.649a7.313,7.313,0,0,1,3.744-7.477,28.24,28.24,0,0,0,3.945-2.365c8.484-6.411,12.9-10.528,15.368-18.569,2.425-7.93,3.877-18.089,4.723-31.351A68.6,68.6,0,0,0,169.261,92.061Z"/><path class="d" d="M116.9,172.359c-.512-7.38-1.932-15.491.083-22.509a14.812,14.812,0,0,1,5.138-7.757,20.884,20.884,0,0,1,5.385-2.965,34.13,34.13,0,0,0,6.695-3.379A44.916,44.916,0,0,0,152.326,112.2c.944-3.006,1.33-6.15,2.452-9.111a13.579,13.579,0,0,1,.832-1.671,4.119,4.119,0,0,1,.246-.367c-.258.345-.042.069.014,0,0,0,.428-.487.174-.2-.149.1-.134.095.047-.029.195-.1.2-.116.019-.037-.023.113-.125.023.192-.037-.622.118-.255.021-.128.056-.593-.164.975.255.295.061.421.12.521.287.8.77.09.155.173.314.247.477-.175-.383.045.15.078.261.113.374.207.751.286,1.133a13.855,13.855,0,0,1,.189,2.27,35.2,35.2,0,0,1-.248,4.354,146.844,146.844,0,0,1-3.306,17.625c-.7,3.005,3.925,4.287,4.629,1.276a153.259,153.259,0,0,0,3.418-18.37,25.939,25.939,0,0,0-.154-8.894c-.864-3.583-4.515-7.249-8.435-5.254-3.184,1.62-4.24,6.137-5.024,9.3a45.732,45.732,0,0,1-3.78,11.062,41.9,41.9,0,0,1-9.837,12.088,37.419,37.419,0,0,1-6.179,4.236c-2.221,1.219-4.677,1.895-6.9,3.119a20.063,20.063,0,0,0-8.52,8.689c-4.058,8.446-2.252,18.395-1.63,27.364a2.458,2.458,0,0,0,2.4,2.4,2.419,2.419,0,0,0,2.4-2.4Z"/><path class="d" d="M160.7,95.424a12.716,12.716,0,0,1,2.077-4.816c.562-.747,1.679-1.708,2.883-1.062,1.345.722,1.165,2,1.273,3.369a120.9,120.9,0,0,1-.9,23.369,91.6,91.6,0,0,1-3.955,19.614c-2.071,5.964-6.5,10.175-11.336,14.009a37.676,37.676,0,0,1-5.478,3.785,11.287,11.287,0,0,0-4.671,4.093c-2.209,3.719-1.022,7.976-.417,11.973a2.416,2.416,0,0,0,2.952,1.677,2.461,2.461,0,0,0,1.676-2.953c-.459-3.035-1.765-6.861.76-9.305,1.341-1.3,3.346-1.917,4.859-3.02,1.736-1.265,3.431-2.6,5.091-3.967a42.035,42.035,0,0,0,7.373-7.54,29.375,29.375,0,0,0,4.289-8.932,117.3,117.3,0,0,0,3.954-22.207c.448-4.475.878-8.994.925-13.493.019-1.8-.065-3.6-.2-5.4-.143-1.962-.019-4.2-.857-6.011a6.889,6.889,0,0,0-11.371-1.693,16.7,16.7,0,0,0-3.565,7.232c-.727,3,3.9,4.282,4.628,1.276Z"/><path class="d" d="M168.81,223.773c-2.184-10.6-4.267-21.226-6.353-31.849q-1.486-7.569-2.977-15.138c-.408-2.069-.659-4.267-1.267-6.287a5.346,5.346,0,0,0-2.468-3.093c-1.463-.83-2.928-.561-4.5-.361-6.336.8-12.694,1.42-19.046,2.088-3.283.345-6.566.7-9.843,1.1q-2.4.292-4.786.619c-1.505.2-3.159.24-4.455,1.118-2.853,1.934-2.457,5.635-2.535,8.654q-.133,5.138-.129,10.277c.006,6.8.179,13.6.555,20.394q.638,11.55,2.141,23.029c.985,7.474,2.016,15.021,3.625,22.389.659,3.016,5.288,1.74,4.629-1.276-1.356-6.206-2.245-12.541-3.139-18.827s-1.558-12.6-2.038-18.927a366.032,366.032,0,0,1-.8-38.542c.023-.78-.294-2.62.366-3.2.2-.174.75-.139,1.011-.177q1.163-.168,2.327-.323c3.1-.412,6.2-.77,9.308-1.11,6.086-.665,12.18-1.247,18.262-1.943q2.277-.261,4.55-.547c.634-.08,1.993-.511,2.32-.092a7.031,7.031,0,0,1,.5,2.314q.333,1.677.665,3.353,1.37,6.926,2.725,13.854c2.212,11.265,4.416,22.532,6.732,33.775.623,3.024,5.25,1.744,4.628-1.276Z"/></svg>