<!DOCTYPE svg PUBLIC "-//W3C//DTD SVG 1.1//EN" "http://www.w3.org/Graphics/SVG/1.1/DTD/svg11.dtd">

<!-- Uploaded to: SVG Repo, www.svgrepo.com, Transformed by: SVG Repo Mixer Tools -->
<svg fill="currentColor" width="800px" height="800px" viewBox="-0.15 0 33.41 33.41" xmlns="http://www.w3.org/2000/svg">

<g id="SVGRepo_bgCarrier" stroke-width="0"/>

<g id="SVGRepo_tracerCarrier" stroke-linecap="round" stroke-linejoin="round"/>

<g id="SVGRepo_iconCarrier"> <g transform="translate(-160.123 -641.343)"> <path d="M176.373,650.843a4.75,4.75,0,1,1,4.75-4.75A4.755,4.755,0,0,1,176.373,650.843Zm0-7.5a2.75,2.75,0,1,0,2.75,2.75A2.752,2.752,0,0,0,176.373,643.343Z"/> <path d="M164.873,674.753a4.75,4.75,0,1,1,4.75-4.75A4.755,4.755,0,0,1,164.873,674.753Zm0-7.5a2.75,2.75,0,1,0,2.75,2.75A2.752,2.752,0,0,0,164.873,667.253Z"/> <path d="M188.482,674.753a4.75,4.75,0,1,1,4.75-4.75A4.756,4.756,0,0,1,188.482,674.753Zm0-7.5a2.75,2.75,0,1,0,2.75,2.75A2.752,2.752,0,0,0,188.482,667.253Z"/> <path d="M166.487,667.622a.989.989,0,0,1-.431-.1,1,1,0,0,1-.47-1.334l8.223-17.171a1,1,0,0,1,1.8.864l-8.224,17.17A1,1,0,0,1,166.487,667.622Z"/> <path d="M186.869,667.622a1,1,0,0,1-.9-.557l-8.495-17.171a1,1,0,1,1,1.793-.886l8.5,17.17a1,1,0,0,1-.453,1.34A.988.988,0,0,1,186.869,667.622Z"/> <path d="M184.732,671H168.623a1,1,0,0,1,0-2h16.109a1,1,0,0,1,0,2Z"/> </g> </g>

</svg>