<!DOCTYPE svg PUBLIC "-//W3C//DTD SVG 1.1//EN" "http://www.w3.org/Graphics/SVG/1.1/DTD/svg11.dtd">

<!-- Uploaded to: SVG Repo, www.svgrepo.com, Transformed by: SVG Repo Mixer Tools -->
<svg width="800px" height="800px" viewBox="0 0 24 24" fill="none" xmlns="http://www.w3.org/2000/svg">

<g id="SVGRepo_bgCarrier" stroke-width="0"/>

<g id="SVGRepo_tracerCarrier" stroke-linecap="round" stroke-linejoin="round"/>

<g id="SVGRepo_iconCarrier"> <path d="M7.45203 13.1793C6.34409 10.9182 7.8519 6.51197 12.9239 7.23231C18.5104 8.02574 17.505 16.7096 12.8471 16.3704C11.3732 16.2631 10.8159 15.0417 10.6704 13.7938M10.6704 13.7938C10.5601 12.8478 10.6865 11.8866 10.8296 11.3842C11.0738 10.527 11.4786 10.6436 11.1828 11.7774C11.0388 12.3292 10.8632 13.0219 10.6704 13.7938ZM10.6704 13.7938C10.156 15.8537 9.51993 18.4786 9.03959 20.5018M9.03959 20.5018C9.96672 20.8246 10.9629 21 12 21C16.9706 21 21 16.9706 21 12C21 7.02944 16.9706 3 12 3C7.02944 3 3 7.02944 3 12C3 15.9334 5.52335 19.2775 9.03959 20.5018Z" stroke="currentColor" stroke-width="2" stroke-linecap="round" stroke-linejoin="round"/> </g>

</svg>