<?xml version="1.0" encoding="utf-8"?>
<!-- Uploaded to: SVG Repo, www.svgrepo.com, Generator: SVG Repo Mixer Tools -->
<svg width="800px" height="800px" viewBox="-43.17 0 278.734 278.734" xmlns="http://www.w3.org/2000/svg"><defs><style>.a{fill:#85807f;}.b{fill:#ffffff;}.c{fill:#211715;}.d{fill:#b3b3b3;}</style></defs><path class="a" d="M167.471,96.452c-1.84-10.2-4.51-18.5-7.061-30.609-2.145-10.2-3.227-23.282-7.486-32.115-3.191-6.6-9.805-16.8-19.973-21.487l-6.459-3.713-1.412-.811A67.554,67.554,0,0,0,97.712,2.4c-18.854,0-34.456,8.762-41.9,16-8.338,9.009-11.766,18-15.675,34.968-2.555,11.09-5.082,24.582-7.082,35.789-1.722,10.127-1.9,20.305,2.836,29.275,5.423,10.271,15.558,15.185,30.843,17.008l65.63.883c14.473.663,24.918-5.448,30.9-16.014a36.076,36.076,0,0,0,4.207-23.485"/><path class="b" d="M45.491,100.857a16.834,16.834,0,0,0,3.446,3.889,7.872,7.872,0,0,0,6.508,1.7,54.5,54.5,0,0,0,10.137,18.8q.678.811,1.375,1.589c.388,1.793.674,3.123.674,3.123l.713,3.3c.722,3.256,1.554,6.763,2.47,10.41,8.2,7.915,19.3,11.529,30.445,11.229q1.493.041,2.984-.014c.236-9.043,3.026-16.624,14.712-20.478a36.479,36.479,0,0,0,19.87-25.12c.893-3.242,2.564-15.226,7.305-12.38l.965-4.05s1.36-5.71,4.28-7.25a4.219,4.219,0,0,1,4.34.01,4.82,4.82,0,0,1,2.15,2.99c.128.948.234,1.793.321,2.568.571-3.79.259-8.313-1.323-11.057a6.731,6.731,0,0,0-6.045-3.358,7.251,7.251,0,0,0-5.242,1.919l-6.242-6.564A253.116,253.116,0,0,0,122.887,43.59c-10.432,8.7-16.1,12.366-34.946,21.319-10.272,4.879-17.472,7.011-26.75,9.851l-6.81,3.928a7.254,7.254,0,0,0-5.243-1.919,6.733,6.733,0,0,0-6.045,3.358c-2.054,3.563-1.967,10.127-.588,14.188A28.5,28.5,0,0,0,45.491,100.857Z"/><path class="c" d="M30.738,88.513c-1.78,10.613-2.015,21.829,3.3,31.537,3.813,6.964,10.173,11.673,17.517,14.417a65.828,65.828,0,0,0,15.176,3.367,2.413,2.413,0,0,0,2.4-2.4,2.459,2.459,0,0,0-2.4-2.4c-7.481-.909-15.225-2.716-21.428-7.2s-9.732-11.9-10.654-19.447a58.059,58.059,0,0,1,.717-16.6,2.471,2.471,0,0,0-1.676-2.952,2.417,2.417,0,0,0-2.952,1.676Z"/><path class="c" d="M127.7,6.456A46.554,46.554,0,0,0,115.968,2.13,73.109,73.109,0,0,0,99.365.011,67.628,67.628,0,0,0,67.293,7.483a59.3,59.3,0,0,0-10.922,7.186A42.128,42.128,0,0,0,48.4,23.936c-5.1,7.741-7.71,16.825-9.866,25.75-3.1,12.83-5.479,25.838-7.8,38.827a2.467,2.467,0,0,0,1.676,2.952,2.42,2.42,0,0,0,2.952-1.676c2.016-11.288,4.11-22.57,6.621-33.76C44,47.074,46.088,37.8,50.54,29.69a45.824,45.824,0,0,1,6.748-9.362,40.129,40.129,0,0,1,8.791-6.681,62,62,0,0,1,28.5-8.77A68.617,68.617,0,0,1,112.524,6.25a65.354,65.354,0,0,1,7.658,2.16c1.216.422,2.415.883,3.611,1.357.1.04.59.3.115.045.154.084.306.175.458.263l.915.526c2.682,1.542,5.1-2.6,2.422-4.145Z"/><path class="c" d="M134.909,16.01c8.782,5.468,15.31,15.155,18.177,25a157.087,157.087,0,0,1,3.619,17.891c1.055,6.269,2.419,12.458,3.946,18.628,1.608,6.5,3.308,12.969,4.506,19.557a2.421,2.421,0,0,0,2.952,1.677,2.453,2.453,0,0,0,1.676-2.953c-2.261-12.436-6.118-24.511-8.248-36.98a183.794,183.794,0,0,0-3.607-18.34,51.244,51.244,0,0,0-6.533-14.34,46.452,46.452,0,0,0-14.065-14.288c-2.63-1.638-5.043,2.513-2.423,4.144Z"/><path class="d" d="M7.039,187.017A259.709,259.709,0,0,0,2.51,232.286c-.3,12.827,3,23.666,8.136,29.584,8.979,10.343,27.048,12.416,39.684,12.3,13.07-.12,22.882-.411,38.172-1.291a.987.987,0,0,0,.948-.99c-.277-12.129-.457-29.424-.691-38.464a68.87,68.87,0,0,0,14.856-2.45l.7-.214c.473,4.044.978,7.724,1.488,10.6a55.243,55.243,0,0,0,6.621,19.131c4.139,6.8,9.218,11.245,17.192,13.956.134.046.269.091.4.135,9.705,3.167,21.31,2.126,30.012-3.4a44.894,44.894,0,0,0,16.913-18.456c9.715-20.634,13.612-43.8,12.929-67.119-.566-19.3-5.408-28.307-12.092-36.361-6.074-6.554-13.628-10.98-22.7-14.687-2.531,7.361-6.927,11.394-15.034,17.516a27.435,27.435,0,0,1-3.95,2.37,7.328,7.328,0,0,0-3.75,7.49c.11.774.2,1.4.3,1.952-9.462,1.051-19.121,1.692-28.6,3.14a2.972,2.972,0,0,0-2.271,3.036c-.38,10.2-.349,20.025.043,29.947.215,5.448.764,13.27,1.487,21H98.6a356.17,356.17,0,0,1-15.422-36.341,444.747,444.747,0,0,1-14.833-51.4l-.713-3.3-.68-3.156-.248.069-9.323,2.579c-14.333,4.444-26.125,10.089-34.435,18.809-7.04,8.22-12.27,19.86-15.91,38.75"/><path class="b" d="M98.522,220.855l.077.157h4.7c-.723-7.731-1.272-15.553-1.487-21-.392-9.922-.423-19.747-.043-29.947a2.972,2.972,0,0,1,2.271-3.036c.262-.04.525-.079.788-.114a116.248,116.248,0,0,1-.583-12.019q-1.49.052-2.983.013c-11.147.3-22.252-3.315-30.448-11.232,3.427,13.63,8.02,29.224,12.366,41A356.262,356.262,0,0,0,98.522,220.855Z"/><path class="c" d="M165.157,97.456c2.4,14.532-5.754,30.493-20.157,34.987a37,37,0,0,1-12.639,1.474c-3.088-.128-3.082,4.672,0,4.8,8.1.337,16.46-1.373,23.134-6.172a36.161,36.161,0,0,0,13.711-20.768,38.82,38.82,0,0,0,.579-15.6,2.419,2.419,0,0,0-2.952-1.677,2.457,2.457,0,0,0-1.676,2.953Z"/><path class="b" d="M88.891,239.758c-.008-.46-.016-.913-.024-1.356-.034-1.826-.068-3.5-.1-4.974a67.333,67.333,0,0,0,15.551-2.671c.471,4.049.977,7.732,1.486,10.611,1.592,9.733,5.3,18.352,9.279,22.77a25.427,25.427,0,0,1-11,3.29c-4.666.071-9.9.149-14.755.2C89.163,258.554,89.033,247.89,88.891,239.758Z"/><path class="c" d="M91.457,116.872a18.7,18.7,0,0,0,9.005,2.085,14.663,14.663,0,0,0,9.1-2.69,2.4,2.4,0,0,0,0-3.394,2.475,2.475,0,0,0-3.394,0c.732-.57.179-.144-.009-.024s-.366.222-.555.322c-.1.051-.2.1-.3.147-.323.166-.1-.091.11-.037-.142-.036-.615.23-.765.278a13.632,13.632,0,0,1-2.141.489c.36-.055-.025,0-.185.015q-.315.032-.631.052c-.506.033-1.014.045-1.522.042-.454,0-.909-.018-1.362-.049q-.312-.021-.624-.051c-.04,0-.791-.12-.283-.031a17.54,17.54,0,0,1-2-.444c-.28-.083-.553-.184-.83-.279-.608-.207.371.19-.178-.069-.343-.162-.681-.33-1.017-.507a2.4,2.4,0,0,0-2.422,4.145Z"/><path class="c" d="M99.21,95.7a42.02,42.02,0,0,1,.99,4.532l-.085-.638a2.781,2.781,0,0,1,.017.625l.085-.638a1.5,1.5,0,0,1-.068.281l.242-.573a1.14,1.14,0,0,1-.1.181l.376-.486a.935.935,0,0,1-.149.146l.486-.375a2.8,2.8,0,0,1-.359.19l.574-.242a2.673,2.673,0,0,1-.6.177l.638-.086a2.452,2.452,0,0,1-.568,0l.638.086c-.214-.03-.425-.082-.639-.111a1.812,1.812,0,0,0-.957-.043,1.774,1.774,0,0,0-.892.285,2.4,2.4,0,0,0-.861,3.283,2.293,2.293,0,0,0,1.434,1.1c.494.067.974.192,1.477.214a4.726,4.726,0,0,0,2.184-.52A3.17,3.17,0,0,0,104.82,101a5.2,5.2,0,0,0-.022-2.239c-.247-1.46-.584-2.907-.96-4.34A2.4,2.4,0,1,0,99.21,95.7Z"/><path class="c" d="M75.32,82.845c-.757,2.459-.264,8.117,4.4,8.6,6.158-.037,6.486-6.877,4.413-10.093C82.431,78.717,77.44,77.621,75.32,82.845Z"/><path class="c" d="M124.636,82.845c.757,2.459.264,8.117-4.395,8.6-6.159-.037-6.487-6.877-4.414-10.093C117.525,78.716,122.516,77.622,124.636,82.845Z"/><path class="c" d="M121.19,41.893a116.967,116.967,0,0,1-17.127,12.139c-4.013,2.284-8.141,4.36-12.291,6.382-5,2.437-10.027,4.813-15.236,6.782-5.249,1.985-10.62,3.609-15.983,5.25-2.945.9-1.69,5.536,1.276,4.628,4.853-1.485,9.715-2.951,14.485-4.692,5.419-1.979,10.666-4.344,15.861-6.846,7.662-3.689,15.322-7.5,22.305-12.39,3.5-2.447,6.827-5.127,10.1-7.859a2.419,2.419,0,0,0,0-3.394,2.452,2.452,0,0,0-3.394,0Z"/><path class="c" d="M120.814,44.8a260.667,260.667,0,0,1,16.447,28.534c1.384,2.762,5.526.335,4.145-2.422a260.573,260.573,0,0,0-16.447-28.534c-1.712-2.553-5.872-.153-4.145,2.422Z"/><path class="c" d="M142.965,102.641a23.424,23.424,0,0,1-1.793,5.648c-.262.636-.541,1.266-.792,1.907-.088.227-.171.455-.254.685-.161.448-.094.232-.03.09a51.13,51.13,0,0,1-3.1,5.747,56.929,56.929,0,0,1-12.236,14.412,22.459,22.459,0,0,1-9.021,4.652c-3.009.695-1.736,5.324,1.276,4.628,7.035-1.626,12.884-6.783,17.463-12.134a62.526,62.526,0,0,0,9.613-14.541,40.5,40.5,0,0,0,3.675-11.094,2.411,2.411,0,0,0-2.4-2.4,2.462,2.462,0,0,0-2.4,2.4Z"/><path class="c" d="M52.056,103.1c3.286,14.139,12.152,27.871,24.955,35.131a32.384,32.384,0,0,0,11.131,3.951,2.478,2.478,0,0,0,2.952-1.676,2.418,2.418,0,0,0-1.676-2.953c-13.68-2.037-24.271-14.116-29.605-26.181a53.589,53.589,0,0,1-3.128-9.548c-.7-3.008-5.328-1.735-4.629,1.276Z"/><path class="c" d="M56.078,76.991A10.286,10.286,0,0,0,44.613,75.47a10.073,10.073,0,0,0-4.948,7,26.018,26.018,0,0,0,4.143,20.173c2.844,4.04,6.8,6.9,11.93,6.2a2.414,2.414,0,0,0,1.676-2.952,2.464,2.464,0,0,0-2.952-1.677c-3.537.483-6.3-3.314-7.749-6a22.316,22.316,0,0,1-2.725-8.591c-.239-2.894-.208-6.433,1.565-8.885-.3.419.085-.094.168-.174s.624-.568.455-.441a4.8,4.8,0,0,1,2.015-.854,5.188,5.188,0,0,1,4.493,1.116c2.289,2.063,5.694-1.321,3.394-3.394Z"/><path class="c" d="M80.2,153a49.449,49.449,0,0,0,21.062,4.306A49.781,49.781,0,0,0,122.321,153a2.42,2.42,0,0,0,.861-3.284,2.457,2.457,0,0,0-3.284-.861,43.846,43.846,0,0,1-18.639,3.651,44.152,44.152,0,0,1-18.64-3.651,2.47,2.47,0,0,0-3.283.861A2.419,2.419,0,0,0,80.2,153Z"/><path class="c" d="M65.317,130.6a415.146,415.146,0,0,0,21.263,69.5q4.587,11.23,9.947,22.117a2.425,2.425,0,0,0,3.284.861,2.451,2.451,0,0,0,.861-3.284c-11.787-23.995-20.528-49.247-27.13-75.127q-1.949-7.64-3.6-15.347c-.651-3.018-5.279-1.741-4.629,1.276Z"/><path class="c" d="M9.349,187.654c2.01-10.359,4.734-20.865,10.008-30.093a39.136,39.136,0,0,1,7.588-9.857,58.557,58.557,0,0,1,12.687-8.645,111.815,111.815,0,0,1,18.386-7.288c2.94-.916,1.685-5.551-1.276-4.629-11.252,3.5-22.46,8.08-31.565,15.739-7.284,6.127-11.864,14.7-15.114,23.523A128.246,128.246,0,0,0,4.72,186.378,2.463,2.463,0,0,0,6.4,189.33a2.423,2.423,0,0,0,2.952-1.676Z"/><path class="c" d="M4.724,186.379a264.18,264.18,0,0,0-3.848,28.7c-.706,8.593-1.358,17.5-.379,26.1.918,8.058,3.205,16.613,8.779,22.764,5.329,5.881,13.178,9,20.768,10.689,7.779,1.727,15.692,2.008,23.628,1.911q13.548-.165,27.082-.836c2.666-.134,5.423-.1,8.067-.462a3.361,3.361,0,0,0,2.78-2.121,9.48,9.48,0,0,0,.2-3.442q-.132-6.256-.224-12.514c-.125-7.759-.214-15.52-.408-23.278-.032-1.239-.065-2.478-.114-3.716-.094-2.4-1.4-3.872-3.856-3.919-3.027-.057-6.065.035-9.092.038-8.894.011-17.788,0-26.681.022q-4.12.011-8.239.029c-3.088.014-3.094,4.814,0,4.8q14.029-.063,28.058-.047,5.231,0,10.46-.011,2.011-.006,4.025-.018a5.416,5.416,0,0,0,1.683-.015c-2.968,1.38-1.032-2.108-1.169-1.141a2.316,2.316,0,0,0,.014.351q.018.434.031.865c.223,6.621.287,13.247.39,19.87q.1,6.153.2,12.308.053,2.925.111,5.852.015.693.029,1.388a6.692,6.692,0,0,0,.015.681c.158,1.176-.541-1.631.971-.711-.269-.163-1.423.081-1.709.1l-2.133.117c-8.621.463-17.247.8-25.879.945-7.536.132-15.1.316-22.575-.848-7.005-1.091-14.324-3.074-20.029-7.474C9.956,258.93,7.271,252,5.9,245.036c-1.563-7.962-1.117-16.313-.628-24.37.536-8.839,1.486-17.666,2.9-26.408q.537-3.311,1.175-6.6A2.463,2.463,0,0,0,7.677,184.7a2.424,2.424,0,0,0-2.953,1.676Z"/><path class="c" d="M39.1,181.012c.891,7.491,1.452,15.02,2.475,22.5.881,6.439,2.281,12.79,3.033,19.249a2.473,2.473,0,0,0,2.4,2.4,2.415,2.415,0,0,0,2.4-2.4c-.769-6.6-2.15-13.093-3.085-19.669-1.042-7.327-1.549-14.726-2.423-22.075a2.474,2.474,0,0,0-2.4-2.4,2.415,2.415,0,0,0-2.4,2.4Z"/><path class="c" d="M89.325,270.036q6.75-.084,13.5-.189a28.891,28.891,0,0,0,11.42-2.619,2.417,2.417,0,0,0,.861-3.284,2.461,2.461,0,0,0-3.284-.861,24.212,24.212,0,0,1-9.842,1.977q-6.328.1-12.656.176c-3.087.038-3.095,4.838,0,4.8Z"/><path class="c" d="M88.765,235.826a68.369,68.369,0,0,0,15.488-2.536,2.4,2.4,0,0,0-1.276-4.629,54.806,54.806,0,0,1-7.128,1.595c-.3.048-.6.095-.9.139-.171.026-.343.051-.515.075-.3.042-.344.048-.136.021q-.9.12-1.8.216-1.863.2-3.733.319a2.4,2.4,0,0,0,0,4.8Z"/><path class="c" d="M103.568,242.5c1.525,8.691,4.642,17.285,10.3,24.159a34.033,34.033,0,0,0,20.894,11.54c8.834,1.423,18.262.06,25.974-4.629a47.5,47.5,0,0,0,17.841-18.73c8.818-17.516,12.829-37.581,13.628-57.061.635-15.493.023-32.291-9.1-45.486a49.485,49.485,0,0,0-15.44-14.208c-7.175-4.326-15.138-7.265-23.069-9.87-2.2-.723-4.412-1.417-6.626-2.1-2.959-.912-4.224,3.72-1.276,4.629,7.867,2.426,15.787,4.94,23.194,8.578,6.2,3.045,12.455,6.978,16.844,12.413a49.816,49.816,0,0,1,4.313,6.276,39.8,39.8,0,0,1,3.409,7.686c2.482,7.605,3.022,15.643,3.09,23.593.161,18.7-2.727,37.481-9.539,54.949a65.148,65.148,0,0,1-5.644,11.8,41.889,41.889,0,0,1-7.961,8.971c-6.213,5.336-13.552,8.671-21.807,8.934-7.458.237-15.475-1.808-21.313-6.632-5.92-4.891-9.429-11.986-11.518-19.249a66.314,66.314,0,0,1-1.563-6.837,2.42,2.42,0,0,0-2.952-1.677,2.454,2.454,0,0,0-1.676,2.953Z"/><path class="c" d="M147.273,80.385a5.191,5.191,0,0,1,4.493-1.116,4.8,4.8,0,0,1,2.014.854c-.192-.145.312.294.374.358.08.082.557.682.25.257,1.773,2.45,1.8,5.993,1.564,8.885a22.316,22.316,0,0,1-2.725,8.591c-1.451,2.678-4.214,6.479-7.749,6a2.483,2.483,0,0,0-2.952,1.677,2.417,2.417,0,0,0,1.676,2.952c8.417,1.149,13.267-6.974,15.548-13.886a24.331,24.331,0,0,0,.783-11.105c-.455-3.03-1.676-5.974-4.239-7.791a10.194,10.194,0,0,0-12.431.934c-2.3,2.072,1.1,5.458,3.394,3.394Z"/><path class="b" d="M147.336,104.839c-3.676,0-6.217,2.586-6.217,5.612,0,3.385,2.6,5.717,6.218,5.717,3.761,0,6.217-2.353,6.217-5.717C153.554,107.405,151,104.839,147.336,104.839Z"/><path class="c" d="M147.336,102.439a8.6,8.6,0,0,0-8.217,5.571,7.99,7.99,0,0,0,3,9.021,9.69,9.69,0,0,0,9.731.462,8,8,0,0,0,3.946-8.532c-.678-4.026-4.6-6.475-8.464-6.522a2.4,2.4,0,0,0,0,4.8c.187,0,.373.016.56.021.454.011-.03-.027-.1-.026a3.339,3.339,0,0,1,.855.182c.164.046.322.1.484.157.453.147-.108-.054-.113-.053.153-.042.709.381.846.472l.131.09q.251.185.008,0l-.12-.09c.079.066.157.135.233.206.033.031.537.554.525.561-.066.043-.3-.477-.059-.056.064.109.137.212.2.322a3.559,3.559,0,0,0,.175.336q.115.248-.091-.227c.037.095.072.19.1.286a4.287,4.287,0,0,0,.186.739c-.034-.017-.046-.623-.026-.179.007.157.02.312.02.469,0,.109,0,.219-.008.327l-.009.162c-.027.268-.015.213.033-.165-.11.1-.137.666-.185.823-.017.058-.14.315-.119.355-.078-.152.248-.483.036-.1-.118.213-.239.42-.365.629-.216.354-.13-.052.071-.082a1.822,1.822,0,0,0-.192.217c-.1.107-.2.208-.311.306-.054.049-.109.1-.166.143q-.207.172.2-.149c-.081-.019-.524.336-.636.4-.027.014-.413.206-.414.2-.013-.033.579-.2.135-.068-.261.076-.516.163-.782.223a1.616,1.616,0,0,1-.5.093l.3-.042c-.118.013-.235.023-.353.03a8.262,8.262,0,0,1-.9.009c-.117-.005-.234-.018-.352-.023-.591-.023.528.113-.042,0-.27-.056-.538-.113-.8-.194-.1-.031-.2-.071-.306-.1q-.366-.141.133.065-.142-.065-.282-.135c-.228-.117-.439-.258-.657-.392-.294-.182.138-.012.124.1a2.982,2.982,0,0,0-.335-.3c-.071-.069-.141-.14-.208-.212s-.286-.43-.1-.1c.2.353-.038-.065-.073-.118-.081-.125-.158-.253-.228-.385-.245-.456.065-.1-.013.027a2.884,2.884,0,0,0-.1-.286c-.083-.249-.134-.5-.195-.755-.13-.535.014.558,0,0,0-.111-.014-.221-.017-.332,0-.16,0-.32.007-.479,0-.078.011-.155.019-.231q.03-.284-.034.257a4.708,4.708,0,0,0,.234-.88c.128-.415-.031.15-.07.154a4.1,4.1,0,0,0,.283-.534c.052-.087.112-.169.164-.255.234-.39-.365.364.047-.056.055-.057.554-.63.608-.594l-.24.18q.127-.094.258-.183.2-.135.41-.252a3.253,3.253,0,0,0,.362-.187q.243-.113-.195.076c.1-.041.209-.08.315-.116a8.719,8.719,0,0,1,1.006-.256c.239-.051.189-.142-.1.013a2.146,2.146,0,0,1,.744-.037,2.4,2.4,0,0,0,0-4.8Z"/><path class="b" d="M158.156,90.925c-.081-.7-.177-1.462-.29-2.3a4.8,4.8,0,0,0-2.146-2.992,4.2,4.2,0,0,0-4.342-.01c-2.921,1.541-4.281,7.253-4.281,7.253l-.962,4.042c-4.739-2.843-6.415,9.143-7.3,12.383a36.5,36.5,0,0,1-19.87,25.116c-16.6,5.479-15.263,18.474-14.127,32.5,9.222-1.37,18.6-2,27.795-3.025-.086-.594-.171-1.192-.279-1.954a7.322,7.322,0,0,1,3.747-7.485,28.1,28.1,0,0,0,3.949-2.367c8.492-6.417,12.914-10.537,15.382-18.585,2.427-7.938,3.264-18.6,3.294-31.378-.1-4.139-.088-6.284-.38-9.422C158.29,92.143,158.229,91.558,158.156,90.925Z"/><path class="c" d="M107.185,166.406a108.3,108.3,0,0,1-.544-11.486,23.556,23.556,0,0,1,1.828-9.342,15.48,15.48,0,0,1,6.807-7c2-1.1,4.206-1.7,6.226-2.758a37.786,37.786,0,0,0,5.8-3.811c7.316-5.757,11.834-13.748,14-22.7.334-1.381.609-2.775.952-4.154.2-.816.421-1.628.672-2.431a19.335,19.335,0,0,1,.756-2.069c.156-.329.321-.654.508-.966.084-.14.552-.757.252-.408.109-.126.224-.243.34-.361l.07-.066c-.248.175-.264.19-.05.043.041.256.39-.893-.109.015.086-.157.752,0,.024-.035.188.009.2.085.009-.025a2.923,2.923,0,0,0,.439.1c.667.188-.275-.064.115.038.109.028.5.324.108.02.122.095.607.633.319.259a4.685,4.685,0,0,1,.532.92c-.156-.344.158.52.207.7.076.287.224,1.047.23,1.087a21.5,21.5,0,0,1,.119,2.36,37.827,37.827,0,0,1-.268,4.022,149.264,149.264,0,0,1-2.671,17.381c-.694,3.006,3.933,4.289,4.629,1.276a151.749,151.749,0,0,0,2.781-18.109,28.61,28.61,0,0,0-.034-8.6c-.672-3.433-3.56-7.053-7.491-6.113-3.589.858-4.946,5.37-5.8,8.468-.973,3.536-1.5,7.185-2.751,10.644a33.832,33.832,0,0,1-7.413,11.81,33.427,33.427,0,0,1-5.338,4.547,33.069,33.069,0,0,1-6.294,3.234,22.88,22.88,0,0,0-10.388,7.815c-5.187,7.341-4.044,17.26-3.367,25.688a2.46,2.46,0,0,0,2.4,2.4,2.419,2.419,0,0,0,2.4-2.4Z"/><path class="c" d="M149.409,93.5a13.3,13.3,0,0,1,1.935-4.6,2.686,2.686,0,0,1,2.4-1.48c1.426.13,1.768,1.5,1.9,2.588a130.368,130.368,0,0,1,.472,21.725c-.3,6.83-.886,13.752-2.78,20.348a25.94,25.94,0,0,1-3.5,7.64,32.911,32.911,0,0,1-5.784,6.119c-1.518,1.307-3.094,2.545-4.689,3.756-1.661,1.262-3.561,2.068-5.251,3.257a10.033,10.033,0,0,0-3.665,4.747,12.1,12.1,0,0,0-.229,6.28,2.417,2.417,0,0,0,2.953,1.676,2.462,2.462,0,0,0,1.676-2.952,6.041,6.041,0,0,1,.616-4.41c.9-1.434,2.521-1.992,3.921-2.811a57.207,57.207,0,0,0,9.4-7.334,32.827,32.827,0,0,0,6.035-7.207,33.528,33.528,0,0,0,3.578-9.078c1.884-7.477,2.408-15.3,2.63-22.983q.178-6.187-.046-12.371-.093-2.481-.363-4.948c-.208-1.907-.241-3.942-1.335-5.59a6.91,6.91,0,0,0-11.206-.569,17.432,17.432,0,0,0-3.3,6.921c-.726,3,3.9,4.281,4.629,1.276Z"/><path class="c" d="M153.973,216.283c-2.193-11.019-4.278-22.061-6.371-33.1q-1.442-7.606-2.891-15.211c-.47-2.453-.639-5.186-3.009-6.621-1.484-.9-3.01-.6-4.629-.393q-2.605.336-5.219.616c-6.874.748-13.768,1.291-20.636,2.1q-2.719.318-5.431.7c-1.632.227-3.256.31-4.548,1.446-2.5,2.2-1.951,6.169-2.025,9.16-.293,11.865-.047,23.739.812,35.577.793,10.926,1.621,22.023,3.709,32.792a2.424,2.424,0,0,0,2.953,1.676,2.451,2.451,0,0,0,1.676-2.952,245.753,245.753,0,0,1-3.149-26.512c-.884-10.683-1.344-21.376-1.317-32.1q.013-4.975.155-9.951.034-1.227.078-2.455a3.812,3.812,0,0,1,.111-1.378c.369-.719,2.246-.6,3.06-.71,6.488-.889,13.019-1.433,19.535-2.072,3.258-.32,6.515-.66,9.764-1.071.54-.069,2.365-.568,2.72-.276.419.343.484,2.256.589,2.805q1.344,7.006,2.667,14.018c2.225,11.737,4.436,23.477,6.767,35.193a2.425,2.425,0,0,0,2.952,1.677,2.451,2.451,0,0,0,1.677-2.953Z"/></svg>