<svg id="icons" enable-background="new 0 0 64 64" height="512" viewBox="0 0 64 64" width="512" xmlns="http://www.w3.org/2000/svg"><path d="m56 59v4h-48v-4c1.11 0 2-.89 2-2h44c0 1.11.9 2 2 2z" fill="#656d78"/><path d="m61 52v11h-5v-4c-1.1 0-2-.89-2-2h-44c0 1.11-.89 2-2 2v4h-5v-11z" fill="#844747"/><path d="m63 48v4h-2-58-2v-4h3 1 20 1 10 25z" fill="#965353"/><path d="m28 46c0 1.11-.89 2-2 2h-1-20c-1.1 0-2-.89-2-2v-17c0-1.1.9-2 2-2h21c1.11 0 2 .9 2 2v15zm-10-8.5c0-1.38-1.12-2.5-2.5-2.5s-2.5 1.12-2.5 2.5 1.12 2.5 2.5 2.5 2.5-1.12 2.5-2.5z" fill="#e6e9ed"/><path d="m26 11.5c0 5.24-3.84 9.57-8.86 10.36l-1.14 1.14-1.02-1.03c-5.56-.27-9.98-4.85-9.98-10.47 0-5.8 4.7-10.5 10.5-10.5s10.5 4.7 10.5 10.5z" fill="#5d9cec"/><path d="m38 15-3 3v-5c0-4.97 4.03-9 9-9h8v4c2.76 0 5 2.24 5 5v5l-3-3s-3.71 2-8 2c-4.28 0-8-2-8-2z" fill="#965353"/><path d="m57 18v4c0 4.27-2.44 7.98-6 9.8-1.5.771-3.2 1.2-5 1.2s-3.5-.43-5-1.2c-3.56-1.819-6-5.53-6-9.8v-4l3-3s3.72 2 8 2c4.29 0 8-2 8-2z" fill="#eac6bb"/><path d="m46 36-3 1-2-2v-3.2c1.5.771 3.2 1.2 5 1.2s3.5-.43 5-1.2v3.2l-2 2z" fill="#87bcf4"/><path d="m43 37 3-1 3 1 2-2h4c3.32 0 6 2.68 6 6v7h-25c1.11 0 2-.89 2-2v-2h-7v-3c0-3.32 2.68-6 6-6h4z" fill="#5d9cec"/><path d="m38 44v2c0 1.11-.89 2-2 2h-10c1.11 0 2-.89 2-2v-2h3z" fill="#ccd1d9"/><circle cx="15.5" cy="37.5" fill="#fff" r="2.5"/><path d="m51.999 11.1c1.103 0 2 .897 2 2v2l3 3v-5c0-2.76-2.24-5-5-5v-4h-3v4c0 1.657 1.343 3 3 3z" fill="#844747"/><path d="m53.999 15.1-.003.002v6.998c0 4.27-2.44 7.98-6 9.8-1.075.552-2.255.921-3.499 1.09.492.067.992.11 1.502.11 1.8 0 3.5-.43 5-1.2 3.56-1.819 6-5.53 6-9.8v-4z" fill="#d3b1a9"/><path d="m57.996 41.1v.29 6.61h3.003v-6.61-.29c0-3.32-2.68-6-6-6h-3.003c3.32 0 6 2.679 6 6z" fill="#4a89dc"/><path d="m15.501 41.004c-1.93 0-3.5-1.57-3.5-3.5s1.57-3.5 3.5-3.5 3.5 1.57 3.5 3.5-1.57 3.5-3.5 3.5zm0-5c-.827 0-1.5.673-1.5 1.5s.673 1.5 1.5 1.5 1.5-.673 1.5-1.5-.673-1.5-1.5-1.5z"/><path d="m56 64c-.553 0-1-.447-1-1v-4c0-.553.447-1 1-1s1 .447 1 1v4c0 .553-.447 1-1 1z"/><path d="m8 64c-.553 0-1-.447-1-1v-4c0-.553.447-1 1-1s1 .447 1 1v4c0 .553-.447 1-1 1z"/><path d="m54 58h-44c-.553 0-1-.447-1-1s.447-1 1-1h44c.553 0 1 .447 1 1s-.447 1-1 1z"/><path d="m56 60c-1.654 0-3-1.346-3-3 0-.553.447-1 1-1s1 .447 1 1c0 .552.448 1 1 1 .553 0 1 .447 1 1s-.447 1-1 1z"/><path d="m8 60c-.553 0-1-.447-1-1s.447-1 1-1c.552 0 1-.448 1-1 0-.553.447-1 1-1s1 .447 1 1c0 1.654-1.346 3-3 3z"/><path d="m28.001 47.002c-.553 0-1-.447-1-1v-16.998c0-.553.447-1 1-1s1 .447 1 1v16.998c0 .553-.447 1-1 1z"/><path d="m26.001 28.004h-21c-.553 0-1-.447-1-1s.447-1 1-1h21c.553 0 1 .447 1 1s-.447 1-1 1z"/><path d="m24.999 49.002h-20.999c-.553 0-1-.447-1-1s.447-1 1-1h20.999c.553 0 1 .447 1 1s-.447 1-1 1z"/><path d="m3.001 47.002c-.553 0-1-.447-1-1v-16.998c0-.553.447-1 1-1s1 .447 1 1v16.998c0 .553-.447 1-1 1z"/><path d="m5.001 49.002c-1.654 0-3-1.346-3-3 0-.553.447-1 1-1s1 .447 1 1c0 .552.448 1 1 1 .553 0 1 .447 1 1s-.447 1-1 1z"/><path d="m38 45.004h-10c-.553 0-1-.447-1-1s.447-1 1-1h10c.553 0 1 .447 1 1s-.447 1-1 1z"/><path d="m38 47.004c-.553 0-1-.447-1-1v-2c0-.553.447-1 1-1s1 .447 1 1v2c0 .553-.447 1-1 1z"/><path d="m36 49.004h-11.001c-.553 0-1-.447-1-1s.447-1 1-1h11.001c.553 0 1 .447 1 1s-.447 1-1 1z"/><path d="m36 49.004c-.553 0-1-.447-1-1s.447-1 1-1c.552 0 1-.448 1-1 0-.553.447-1 1-1s1 .447 1 1c0 1.654-1.346 3-3 3z"/><path d="m26 49.004c-.553 0-1-.447-1-1s.447-1 1-1c.552 0 1-.448 1-1 0-.553.447-1 1-1s1 .447 1 1c0 1.654-1.346 3-3 3z"/><path d="m28.001 30.004c-.553 0-1-.447-1-1 0-.552-.448-1-1-1-.553 0-1-.447-1-1s.447-1 1-1c1.654 0 3 1.346 3 3 0 .553-.447 1-1 1z"/><path d="m3.001 30.004c-.553 0-1-.447-1-1 0-1.654 1.346-3 3-3 .553 0 1 .447 1 1s-.447 1-1 1c-.552 0-1 .448-1 1 0 .553-.447 1-1 1z"/><path d="m61 64c-.553 0-1-.447-1-1v-11c0-.553.447-1 1-1s1 .447 1 1v11c0 .553-.447 1-1 1z"/><path d="m3 64c-.553 0-1-.447-1-1v-11c0-.553.447-1 1-1s1 .447 1 1v11c0 .553-.447 1-1 1z"/><path d="m63 53h-62c-.553 0-1-.447-1-1v-4c0-.553.447-1 1-1h62c.553 0 1 .447 1 1v4c0 .553-.447 1-1 1zm-61-2h60v-2h-60z"/><path d="m31 42c-.553 0-1-.447-1-1 0-3.859 3.141-7 7-7 .553 0 1 .447 1 1s-.447 1-1 1c-2.757 0-5 2.243-5 5 0 .553-.447 1-1 1z"/><path d="m41 36.002-4.001-.002c-.552 0-.999-.448-.999-1 0-.553.448-1 1-1h.001l4 .002c.552 0 .999.448.999 1 0 .553-.448 1-1 1z"/><path d="m61 42c-.553 0-1-.447-1-1 0-2.757-2.243-5-5-5-.553 0-1-.447-1-1s.447-1 1-1c3.859 0 7 3.141 7 7 0 .553-.447 1-1 1z"/><path d="m51 36.002c-.552 0-1-.447-1-1 0-.552.447-1 .999-1l4-.002h.001c.552 0 1 .447 1 1 0 .552-.447 1-.999 1z"/><path d="m61 49.004c-.553 0-1-.447-1-1v-7.004c0-.553.447-1 1-1s1 .447 1 1v7.004c0 .553-.447 1-1 1z"/><path d="m41 36.002c-.553 0-1-.447-1-1v-3.201c0-.553.447-1 1-1s1 .447 1 1v3.201c0 .553-.447 1-1 1z"/><path d="m51 36c-.553 0-1-.447-1-1v-3.199c0-.553.447-1 1-1s1 .447 1 1v3.199c0 .553-.447 1-1 1z"/><path d="m46 34c-6.617 0-12-5.382-12-11.998 0-.553.447-1 1-1s1 .447 1 1c0 5.513 4.486 9.998 10 9.998s10-4.485 10-9.998c0-.553.447-1 1-1s1 .447 1 1c0 6.616-5.383 11.998-12 11.998z"/><path d="m35 23.002c-.553 0-1-.447-1-1v-9.002c0-.553.447-1 1-1s1 .447 1 1v9.002c0 .553-.447 1-1 1z"/><path d="m57 23.004c-.553 0-1-.447-1-1v-9.004c0-.553.447-1 1-1s1 .447 1 1v9.004c0 .553-.447 1-1 1z"/><path d="m57 14c-.553 0-1-.447-1-1 0-2.206-1.794-4-4-4-.553 0-1-.447-1-1s.447-1 1-1c3.309 0 6 2.691 6 6 0 .553-.447 1-1 1z"/><path d="m52 9c-.553 0-1-.447-1-1v-4c0-.553.447-1 1-1s1 .447 1 1v4c0 .553-.447 1-1 1z"/><path d="m52 5h-8c-.553 0-1-.447-1-1s.447-1 1-1h8c.553 0 1 .447 1 1s-.447 1-1 1z"/><path d="m35 14c-.553 0-1-.447-1-1 0-5.513 4.486-9.998 10-9.998.553 0 1 .447 1 1s-.447 1-1 1c-4.411 0-8 3.588-8 7.998 0 .553-.447 1-1 1z"/><path d="m57 19c-.256 0-.512-.098-.707-.293l-3-3c-.391-.391-.391-1.023 0-1.414s1.023-.391 1.414 0l3 3c.391.391.391 1.023 0 1.414-.195.195-.451.293-.707.293z"/><path d="m46 18c-4.485 0-8.313-2.033-8.474-2.119-.486-.262-.668-.867-.407-1.354.261-.485.866-.672 1.354-.408.035.019 3.559 1.881 7.527 1.881 3.987 0 7.491-1.861 7.526-1.881.485-.261 1.093-.079 1.354.407s.079 1.093-.407 1.354c-.16.087-3.988 2.12-8.473 2.12z"/><path d="m35 19c-.256 0-.512-.098-.707-.293-.391-.391-.391-1.023 0-1.414l3-3c.391-.391 1.023-.391 1.414 0s.391 1.023 0 1.414l-3 3c-.195.195-.451.293-.707.293z"/><path d="m43 38c-.256 0-.512-.098-.707-.293l-2-1.998c-.391-.39-.391-1.023 0-1.414s1.023-.391 1.414 0l2 1.998c.391.39.391 1.023 0 1.414-.195.195-.451.293-.707.293z"/><path d="m43 38c-.419 0-.809-.265-.948-.684-.175-.524.108-1.091.632-1.265l3-1c.528-.176 1.09.108 1.265.632s-.108 1.091-.632 1.265l-3 1c-.106.035-.213.052-.317.052z"/><path d="m49 38c-.256 0-.512-.098-.707-.293-.391-.391-.391-1.024 0-1.414l2-1.998c.391-.391 1.023-.391 1.414 0s.391 1.024 0 1.414l-2 1.998c-.195.195-.451.293-.707.293z"/><path d="m49 38c-.104 0-.211-.017-.316-.052l-3-1c-.523-.174-.807-.74-.632-1.265.174-.523.737-.808 1.265-.632l3 1c.523.174.807.74.632 1.265-.14.419-.53.684-.949.684z"/><path d="m46.03 46c-.553 0-1.005-.447-1.005-1s.442-1 .994-1h.011c.552 0 1 .447 1 1s-.448 1-1 1z"/><path d="m46.03 42c-.553 0-1.005-.447-1.005-1s.442-1 .994-1h.011c.552 0 1 .447 1 1s-.448 1-1 1z"/><path d="m31 45.004c-.553 0-1-.447-1-1v-3.004c0-.553.447-1 1-1s1 .447 1 1v3.004c0 .553-.447 1-1 1z"/><path d="m16 24c-.265 0-.52-.105-.707-.293l-.76-.76c-5.937-.494-10.533-5.449-10.533-11.447 0-6.341 5.159-11.5 11.5-11.5s11.5 5.159 11.5 11.5c0 5.58-3.924 10.276-9.378 11.291l-.915.916c-.187.188-.441.293-.707.293zm-.5-22c-5.238 0-9.5 4.262-9.5 9.5 0 5.063 3.964 9.225 9.024 9.476.247.013.481.116.657.292l.319.318.433-.434c.149-.149.343-.248.552-.281 4.644-.729 8.015-4.671 8.015-9.371 0-5.238-4.262-9.5-9.5-9.5z"/><path d="m22 12.492c-.256 0-.512-.098-.707-.293l-2.5-2.502c-.391-.391-.391-1.024 0-1.414.391-.391 1.023-.391 1.414 0l2.5 2.502c.391.391.391 1.024 0 1.414-.195.196-.451.293-.707.293z"/><path d="m19.5 14.988c-.256 0-.512-.098-.707-.293-.391-.391-.391-1.023 0-1.414l2.5-2.5c.391-.391 1.023-.391 1.414 0s.391 1.023 0 1.414l-2.5 2.5c-.195.196-.451.293-.707.293z"/><path d="m9 12.492c-.256 0-.512-.098-.707-.293-.391-.39-.391-1.023 0-1.414l2.5-2.502c.391-.391 1.023-.391 1.414 0 .391.39.391 1.023 0 1.414l-2.5 2.502c-.195.196-.451.293-.707.293z"/><path d="m11.5 14.988c-.256 0-.512-.098-.707-.293l-2.5-2.5c-.391-.391-.391-1.023 0-1.414s1.023-.391 1.414 0l2.5 2.5c.391.391.391 1.023 0 1.414-.195.196-.451.293-.707.293z"/><path d="m14.001 16.988c-.104 0-.211-.017-.316-.052-.523-.174-.807-.74-.632-1.265l3-9.004c.173-.523.736-.809 1.265-.632.523.174.807.74.632 1.265l-3 9.004c-.139.42-.53.684-.949.684z"/></svg>