<svg height="512pt" viewBox="0 0 512 512" width="512pt" xmlns="http://www.w3.org/2000/svg"><path d="m0 120v392h512v-392l-256-60zm0 0" fill="#0042a2"/><path d="m256 512h256v-392l-256-60zm0 0" fill="#002859"/><path d="m0 0v120h512v-90h-256l-61-30zm0 0" fill="#ddebf0"/><path d="m256 30h256v90h-256zm0 0" fill="#c5e1e6"/><path d="m60 60h30v30h-30zm0 0" fill="#ff6379"/><path d="m120 60h30v30h-30zm0 0" fill="#ffdc55"/><path d="m180 60h30v30h-30zm0 0" fill="#8ee16a"/><path d="m180 218h-60v196h30v-76h30c33.085938 0 60-26.914062 60-60s-26.914062-60-60-60zm0 90h-30v-60h30c16.542969 0 30 13.457031 30 30s-13.457031 30-30 30zm0 0" fill="#ffdc55"/><path d="m398 217h-30v90h-60v-88.308594h-30v118.308594h45v78h30v-78h45zm0 0" fill="#ffd400"/></svg>